<svg width="161" height="36" viewBox="0 0 161 36" fill="none" xmlns="http://www.w3.org/2000/svg">
<path d="M84.626 14.1651C84.626 13.4974 84.3889 12.9771 83.9145 12.6042C83.4488 12.2313 82.6252 11.8454 81.4437 11.4465C80.2621 11.0476 79.2962 10.6617 78.5459 10.2889C76.1052 9.08351 74.8849 7.42723 74.8849 5.32003C74.8849 4.27077 75.1867 3.34724 75.7904 2.54945C76.4028 1.74299 77.2652 1.11864 78.3777 0.676386C79.4903 0.225462 80.7408 0 82.1293 0C83.4833 0 84.695 0.242805 85.7644 0.728415C86.8425 1.21403 87.679 1.90775 88.2741 2.8096C88.8692 3.70278 89.1667 4.72603 89.1667 5.87935H84.639C84.639 5.10758 84.4018 4.50924 83.9275 4.08433C83.4618 3.65942 82.8279 3.44696 82.0258 3.44696C81.2151 3.44696 80.5726 3.62907 80.0983 3.99328C79.6326 4.34881 79.3997 4.80407 79.3997 5.35905C79.3997 5.84467 79.6584 6.28692 80.1759 6.68581C80.6933 7.07603 81.6032 7.4836 82.9055 7.90851C84.2078 8.32475 85.2772 8.77567 86.1137 9.26128C88.1491 10.4406 89.1667 12.0665 89.1667 14.1391C89.1667 15.7953 88.5458 17.0961 87.3039 18.0413C86.062 18.9865 84.3587 19.4591 82.194 19.4591C80.6675 19.4591 79.2833 19.1859 78.0414 18.6396C76.8081 18.0846 75.8767 17.3302 75.2471 16.3763C74.6261 15.4138 74.3157 14.3082 74.3157 13.0594H78.8693C78.8693 14.074 79.128 14.8241 79.6455 15.3097C80.1716 15.7867 81.0211 16.0251 82.194 16.0251C82.9443 16.0251 83.5351 15.8647 83.9663 15.5439C84.4061 15.2143 84.626 14.7547 84.626 14.1651Z" fill="white"/>
<path d="M107.341 3.78516H101.688V19.1989H97.1475V3.78516H91.5977V0.260148H107.341V3.78516Z" fill="white"/>
<path d="M119.475 15.6609H113.252L112.166 19.1989H107.315L114.223 0.260148H118.492L125.451 19.1989H120.574L119.475 15.6609ZM114.339 12.1359H118.388L116.357 5.56717L114.339 12.1359Z" fill="white"/>
<path d="M134.894 12.5131H132.436V19.1989H127.895V0.260148H135.308C137.542 0.260148 139.288 0.758766 140.547 1.756C141.806 2.75324 142.436 4.16237 142.436 5.98341C142.436 7.3015 142.169 8.39412 141.634 9.26128C141.108 10.1284 140.28 10.8308 139.15 11.3685L143.083 19.0038V19.1989H138.219L134.894 12.5131ZM132.436 8.98812H135.308C136.17 8.98812 136.817 8.76266 137.248 8.31174C137.688 7.85214 137.908 7.21478 137.908 6.39965C137.908 5.58452 137.688 4.94715 137.248 4.48756C136.809 4.01929 136.162 3.78516 135.308 3.78516H132.436V8.98812Z" fill="white"/>
<path d="M160.378 3.78516H154.725V19.1989H150.184V3.78516H144.634V0.260148H160.378V3.78516Z" fill="white"/>
<path d="M12.1603 15.6609H5.93784L4.85118 19.1989H0L6.90807 0.260148H11.1771L18.1369 19.1989H13.2599L12.1603 15.6609ZM7.0245 12.1359H11.0736L9.04259 5.56717L7.0245 12.1359Z" fill="#20B27E"/>
<path d="M26.8809 14.048L30.6325 0.260148H35.7036L29.3647 19.1989H24.3971L18.11 0.260148H23.1423L26.8809 14.048Z" fill="#20B27E"/>
<path d="M52.934 3.78516H47.2807V19.1989H42.74V3.78516H37.1903V0.260148H52.934V3.78516Z" fill="#20B27E"/>
<path d="M71.5097 10.1198C71.5097 11.9668 71.169 13.6014 70.4877 15.0236C69.8064 16.4457 68.8362 17.5427 67.577 18.3144C66.3265 19.0775 64.8991 19.4591 63.295 19.4591C61.6909 19.4591 60.2679 19.0905 59.026 18.3535C57.7841 17.6077 56.8139 16.5454 56.1153 15.1666C55.4253 13.7879 55.0631 12.2053 55.0286 10.4189V9.35233C55.0286 7.49661 55.365 5.86201 56.0377 4.44854C56.719 3.02639 57.6892 1.92943 58.9484 1.15766C60.2162 0.385887 61.6564 0 63.2692 0C64.8647 0 66.2877 0.381551 67.5382 1.14465C68.7887 1.90775 69.7589 2.99604 70.4489 4.40951C71.1475 5.81431 71.5011 7.42723 71.5097 9.24827V10.1198ZM66.8914 9.32632C66.8914 7.44458 66.5766 6.0181 65.947 5.04688C65.3261 4.06699 64.4334 3.57704 63.2692 3.57704C60.9923 3.57704 59.7893 5.29402 59.6599 8.72798L59.6469 10.1198C59.6469 11.9755 59.9531 13.402 60.5654 14.3992C61.1778 15.3964 62.0876 15.8951 63.295 15.8951C64.4421 15.8951 65.3261 15.4051 65.947 14.4252C66.568 13.4453 66.8827 12.0362 66.8914 10.1978V9.32632Z" fill="#20B27E"/>
<path d="M76.9719 31.5994C76.9719 31.1273 77.0655 30.7027 77.2525 30.3256C77.4396 29.9456 77.7024 29.6546 78.0408 29.4527C78.3793 29.2478 78.7683 29.1454 79.2077 29.1454C79.858 29.1454 80.385 29.3547 80.7889 29.7734C81.1956 30.192 81.4154 30.7473 81.448 31.4391L81.4525 31.693C81.4525 32.168 81.3604 32.5926 81.1763 32.9668C80.9952 33.3409 80.7339 33.6304 80.3925 33.8353C80.054 34.0401 79.662 34.1426 79.2167 34.1426C78.5367 34.1426 77.9919 33.9169 77.5821 33.4656C77.1753 33.0113 76.9719 32.4071 76.9719 31.6529V31.5994ZM78.0542 31.693C78.0542 32.1888 78.1566 32.5778 78.3615 32.8599C78.5664 33.139 78.8514 33.2785 79.2167 33.2785C79.5819 33.2785 79.8654 33.136 80.0673 32.851C80.2722 32.5659 80.3747 32.1487 80.3747 31.5994C80.3747 31.1125 80.2692 30.7265 80.0584 30.4414C79.8506 30.1564 79.567 30.0139 79.2077 30.0139C78.8544 30.0139 78.5738 30.1549 78.366 30.437C78.1581 30.7161 78.0542 31.1347 78.0542 31.693Z" fill="#20B27E"/>
<path d="M83.7369 29.2344L83.7681 29.7912C84.1244 29.3606 84.5921 29.1454 85.1711 29.1454C86.1747 29.1454 86.6854 29.7199 86.7032 30.869V34.0535H85.6209V30.9314C85.6209 30.6255 85.5541 30.3999 85.4205 30.2544C85.2898 30.1059 85.0746 30.0317 84.7747 30.0317C84.3382 30.0317 84.0131 30.2291 83.7993 30.624V34.0535H82.717V29.2344H83.7369Z" fill="#20B27E"/>
<path d="M89.3261 34.0535H88.2439V27.2124H89.3261V34.0535Z" fill="#20B27E"/>
<path d="M93.7529 34.0535C93.7054 33.9614 93.6638 33.8115 93.6282 33.6037C93.2838 33.9629 92.8621 34.1426 92.3633 34.1426C91.8793 34.1426 91.4844 34.0045 91.1786 33.7284C90.8728 33.4522 90.7198 33.1108 90.7198 32.704C90.7198 32.1903 90.9099 31.7969 91.2899 31.5237C91.673 31.2476 92.2193 31.1095 92.9289 31.1095H93.5926V30.7933C93.5926 30.5439 93.5228 30.3449 93.3832 30.1965C93.2437 30.045 93.0314 29.9693 92.7463 29.9693C92.4999 29.9693 92.298 30.0317 92.1406 30.1564C91.9832 30.2781 91.9046 30.434 91.9046 30.624H90.8223C90.8223 30.3598 90.9099 30.1133 91.085 29.8847C91.2602 29.6531 91.4978 29.472 91.7977 29.3413C92.1005 29.2107 92.4375 29.1454 92.8087 29.1454C93.3728 29.1454 93.8227 29.2879 94.1582 29.5729C94.4937 29.855 94.6659 30.2529 94.6748 30.7666V32.94C94.6748 33.3735 94.7357 33.7195 94.8574 33.9778V34.0535H93.7529ZM92.5637 33.2741C92.7775 33.2741 92.9779 33.2221 93.165 33.1182C93.355 33.0143 93.4975 32.8747 93.5926 32.6995V31.7909H93.0091C92.6083 31.7909 92.3069 31.8607 92.105 32.0003C91.9031 32.1398 91.8021 32.3373 91.8021 32.5926C91.8021 32.8005 91.8704 32.9668 92.007 33.0915C92.1465 33.2132 92.3321 33.2741 92.5637 33.2741Z" fill="#20B27E"/>
<path d="M97.7877 32.5036L98.7676 29.2344H99.9211L98.006 34.7839C97.712 35.5945 97.2132 35.9998 96.5095 35.9998C96.3521 35.9998 96.1784 35.9731 95.9884 35.9196V35.0823L96.1932 35.0957C96.4664 35.0957 96.6713 35.0452 96.8079 34.9443C96.9474 34.8463 97.0573 34.68 97.1375 34.4454L97.2933 34.0312L95.6009 29.2344H96.7678L97.7877 32.5036Z" fill="#20B27E"/>
<path d="M101.916 29.2344L101.947 29.7912C102.304 29.3606 102.771 29.1454 103.35 29.1454C104.354 29.1454 104.864 29.7199 104.882 30.869V34.0535H103.8V30.9314C103.8 30.6255 103.733 30.3999 103.6 30.2544C103.469 30.1059 103.254 30.0317 102.954 30.0317C102.517 30.0317 102.192 30.2291 101.978 30.624V34.0535H100.896V29.2344H101.916Z" fill="#20B27E"/>
<path d="M111.87 34.0535C111.822 33.9614 111.781 33.8115 111.745 33.6037C111.401 33.9629 110.979 34.1426 110.48 34.1426C109.996 34.1426 109.601 34.0045 109.295 33.7284C108.99 33.4522 108.837 33.1108 108.837 32.704C108.837 32.1903 109.027 31.7969 109.407 31.5237C109.79 31.2476 110.336 31.1095 111.046 31.1095H111.709V30.7933C111.709 30.5439 111.64 30.3449 111.5 30.1965C111.36 30.045 111.148 29.9693 110.863 29.9693C110.617 29.9693 110.415 30.0317 110.257 30.1564C110.1 30.2781 110.021 30.434 110.021 30.624H108.939C108.939 30.3598 109.027 30.1133 109.202 29.8847C109.377 29.6531 109.615 29.472 109.914 29.3413C110.217 29.2107 110.554 29.1454 110.925 29.1454C111.49 29.1454 111.939 29.2879 112.275 29.5729C112.61 29.855 112.783 30.2529 112.792 30.7666V32.94C112.792 33.3735 112.852 33.7195 112.974 33.9778V34.0535H111.87ZM110.68 33.2741C110.894 33.2741 111.095 33.2221 111.282 33.1182C111.472 33.0143 111.614 32.8747 111.709 32.6995V31.7909H111.126C110.725 31.7909 110.424 31.8607 110.222 32.0003C110.02 32.1398 109.919 32.3373 109.919 32.5926C109.919 32.8005 109.987 32.9668 110.124 33.0915C110.263 33.2132 110.449 33.2741 110.68 33.2741Z" fill="#20B27E"/>
<path d="M115.918 32.6817L116.938 29.2344H118.056L116.385 34.0535H115.446L113.762 29.2344H114.885L115.918 32.6817Z" fill="#20B27E"/>
<path d="M120.456 28.0631V29.2344H121.307V30.0361H120.456V32.7262C120.456 32.9103 120.492 33.044 120.563 33.1271C120.637 33.2073 120.768 33.2473 120.955 33.2473C121.079 33.2473 121.206 33.2325 121.333 33.2028V34.0401C121.087 34.1084 120.849 34.1426 120.621 34.1426C119.789 34.1426 119.374 33.6838 119.374 32.7663V30.0361H118.581V29.2344H119.374V28.0631H120.456Z" fill="#20B27E"/>
<path d="M122.166 31.5994C122.166 31.1273 122.259 30.7027 122.446 30.3256C122.634 29.9456 122.896 29.6546 123.235 29.4527C123.573 29.2478 123.962 29.1454 124.402 29.1454C125.052 29.1454 125.579 29.3547 125.983 29.7734C126.39 30.192 126.609 30.7473 126.642 31.4391L126.646 31.693C126.646 32.168 126.554 32.5926 126.37 32.9668C126.189 33.3409 125.928 33.6304 125.586 33.8353C125.248 34.0401 124.856 34.1426 124.411 34.1426C123.731 34.1426 123.186 33.9169 122.776 33.4656C122.369 33.0113 122.166 32.4071 122.166 31.6529V31.5994ZM123.248 31.693C123.248 32.1888 123.351 32.5778 123.555 32.8599C123.76 33.139 124.045 33.2785 124.411 33.2785C124.776 33.2785 125.059 33.136 125.261 32.851C125.466 32.5659 125.569 32.1487 125.569 31.5994C125.569 31.1125 125.463 30.7265 125.252 30.4414C125.045 30.1564 124.761 30.0139 124.402 30.0139C124.048 30.0139 123.768 30.1549 123.56 30.437C123.352 30.7161 123.248 31.1347 123.248 31.693Z" fill="#20B27E"/>
<path d="M128.944 29.2344L128.975 29.7377C129.314 29.3428 129.777 29.1454 130.365 29.1454C131.009 29.1454 131.45 29.3918 131.688 29.8847C132.038 29.3918 132.531 29.1454 133.166 29.1454C133.698 29.1454 134.093 29.2923 134.351 29.5863C134.612 29.8802 134.746 30.3138 134.752 30.8868V34.0535H133.67V30.918C133.67 30.6122 133.603 30.388 133.469 30.2455C133.336 30.1029 133.115 30.0317 132.806 30.0317C132.559 30.0317 132.357 30.0985 132.2 30.2321C132.046 30.3627 131.937 30.535 131.875 30.7487L131.879 34.0535H130.797V30.8824C130.782 30.3152 130.493 30.0317 129.929 30.0317C129.495 30.0317 129.188 30.2083 129.007 30.5617V34.0535H127.924V29.2344H128.944Z" fill="#20B27E"/>
<path d="M139.108 34.0535C139.06 33.9614 139.018 33.8115 138.983 33.6037C138.638 33.9629 138.217 34.1426 137.718 34.1426C137.234 34.1426 136.839 34.0045 136.533 33.7284C136.227 33.4522 136.074 33.1108 136.074 32.704C136.074 32.1903 136.264 31.7969 136.645 31.5237C137.028 31.2476 137.574 31.1095 138.284 31.1095H138.947V30.7933C138.947 30.5439 138.877 30.3449 138.738 30.1965C138.598 30.045 138.386 29.9693 138.101 29.9693C137.855 29.9693 137.653 30.0317 137.495 30.1564C137.338 30.2781 137.259 30.434 137.259 30.624H136.177C136.177 30.3598 136.264 30.1133 136.44 29.8847C136.615 29.6531 136.852 29.472 137.152 29.3413C137.455 29.2107 137.792 29.1454 138.163 29.1454C138.727 29.1454 139.177 29.2879 139.513 29.5729C139.848 29.855 140.021 30.2529 140.029 30.7666V32.94C140.029 33.3735 140.09 33.7195 140.212 33.9778V34.0535H139.108ZM137.918 33.2741C138.132 33.2741 138.333 33.2221 138.52 33.1182C138.71 33.0143 138.852 32.8747 138.947 32.6995V31.7909H138.364C137.963 31.7909 137.662 31.8607 137.46 32.0003C137.258 32.1398 137.157 32.3373 137.157 32.5926C137.157 32.8005 137.225 32.9668 137.362 33.0915C137.501 33.2132 137.687 33.2741 137.918 33.2741Z" fill="#20B27E"/>
<path d="M143.093 31.9869L142.612 32.4813V34.0535H141.53V27.2124H142.612V31.1585L142.951 30.7354L144.283 29.2344H145.583L143.793 31.2431L145.775 34.0535H144.523L143.093 31.9869Z" fill="#20B27E"/>
<path d="M148.014 28.0631V29.2344H148.865V30.0361H148.014V32.7262C148.014 32.9103 148.05 33.044 148.121 33.1271C148.196 33.2073 148.326 33.2473 148.513 33.2473C148.638 33.2473 148.764 33.2325 148.892 33.2028V34.0401C148.645 34.1084 148.408 34.1426 148.179 34.1426C147.348 34.1426 146.932 33.6838 146.932 32.7663V30.0361H146.139V29.2344H146.932V28.0631H148.014Z" fill="#20B27E"/>
<path d="M152.94 34.0535C152.893 33.9614 152.851 33.8115 152.815 33.6037C152.471 33.9629 152.049 34.1426 151.55 34.1426C151.066 34.1426 150.672 34.0045 150.366 33.7284C150.06 33.4522 149.907 33.1108 149.907 32.704C149.907 32.1903 150.097 31.7969 150.477 31.5237C150.86 31.2476 151.406 31.1095 152.116 31.1095H152.78V30.7933C152.78 30.5439 152.71 30.3449 152.57 30.1965C152.431 30.045 152.219 29.9693 151.933 29.9693C151.687 29.9693 151.485 30.0317 151.328 30.1564C151.17 30.2781 151.092 30.434 151.092 30.624H150.009C150.009 30.3598 150.097 30.1133 150.272 29.8847C150.447 29.6531 150.685 29.472 150.985 29.3413C151.288 29.2107 151.625 29.1454 151.996 29.1454C152.56 29.1454 153.01 29.2879 153.345 29.5729C153.681 29.855 153.853 30.2529 153.862 30.7666V32.94C153.862 33.3735 153.923 33.7195 154.045 33.9778V34.0535H152.94ZM151.751 33.2741C151.965 33.2741 152.165 33.2221 152.352 33.1182C152.542 33.0143 152.685 32.8747 152.78 32.6995V31.7909H152.196C151.795 31.7909 151.494 31.8607 151.292 32.0003C151.09 32.1398 150.989 32.3373 150.989 32.5926C150.989 32.8005 151.058 32.9668 151.194 33.0915C151.334 33.2132 151.519 33.2741 151.751 33.2741Z" fill="#20B27E"/>
<path d="M159.589 31.693C159.589 32.4412 159.422 33.0365 159.086 33.4789C158.753 33.9214 158.295 34.1426 157.71 34.1426C157.146 34.1426 156.706 33.9392 156.391 33.5324L156.338 34.0535H155.358V27.2124H156.44V29.6976C156.752 29.3295 157.172 29.1454 157.701 29.1454C158.289 29.1454 158.75 29.3636 159.086 29.8001C159.422 30.2366 159.589 30.8467 159.589 31.6306V31.693ZM158.507 31.5994C158.507 31.0768 158.415 30.6849 158.231 30.4236C158.047 30.1623 157.78 30.0317 157.429 30.0317C156.96 30.0317 156.63 30.2366 156.44 30.6463V32.6327C156.633 33.0514 156.966 33.2607 157.438 33.2607C157.777 33.2607 158.038 33.1345 158.222 32.8821C158.406 32.6297 158.501 32.2482 158.507 31.7375V31.5994Z" fill="#20B27E"/>
</svg>
