<svg width="455" height="136" viewBox="0 0 455 136" fill="none" xmlns="http://www.w3.org/2000/svg">
<path d="M437.778 135.946H16.8376C7.57704 135.946 0 128.299 0 118.953V16.9933C0 7.64695 7.57688 0 16.8376 0H437.778C447.038 0 454.615 7.64695 454.615 16.9933V118.953C454.615 128.299 447.038 135.946 437.778 135.946" fill="black"/>
<path d="M437.778 0H16.8376C7.57704 0 0 7.64695 0 16.9933V118.953C0 128.299 7.57688 135.946 16.8376 135.946H437.778C447.038 135.946 454.615 128.299 454.615 118.953V16.9933C454.615 7.64695 447.038 0 437.778 0H437.778ZM437.778 2.71883C445.577 2.71883 451.921 9.12337 451.921 16.9933V118.953C451.921 126.824 445.577 133.228 437.778 133.228H16.8376C9.03987 133.228 2.69404 126.824 2.69404 118.953V16.9933C2.69404 9.12337 9.03972 2.71899 16.8376 2.71899H437.778" fill="#A6A6A6"/>
<path d="M159.683 34.8138C159.683 37.6612 158.847 39.9287 157.174 41.6202C155.273 43.6315 152.796 44.6379 149.751 44.6379C146.834 44.6379 144.355 43.6184 142.316 41.5763C140.273 39.5358 139.254 37.0055 139.254 33.9865C139.254 30.9662 140.273 28.4374 142.316 26.3952C144.355 24.3548 146.834 23.3337 149.751 23.3337C151.198 23.3337 152.583 23.6194 153.898 24.189C155.214 24.7599 156.269 25.5178 157.058 26.467L155.282 28.2605C153.944 26.6475 152.103 25.8416 149.751 25.8416C147.624 25.8416 145.785 26.5959 144.233 28.1053C142.68 29.6162 141.904 31.5756 141.904 33.9865C141.904 36.3976 142.68 38.3568 144.233 39.8679C145.785 41.3773 147.624 42.1314 149.751 42.1314C152.007 42.1314 153.888 41.3732 155.394 39.8546C156.372 38.8653 156.937 37.4902 157.088 35.7243H149.75V33.2749H159.542C159.636 33.8075 159.682 34.3186 159.682 34.8138" fill="white"/>
<path d="M159.683 34.8137H159.346C159.343 37.5963 158.538 39.7574 156.935 41.3799L156.932 41.3826L156.93 41.3854C155.09 43.3274 152.725 44.2939 149.75 44.298C146.912 44.2939 144.536 43.3168 142.552 41.336C140.573 39.3513 139.594 36.9283 139.59 33.9865C139.594 31.0433 140.573 28.6217 142.552 26.6383C144.536 24.6561 146.912 23.6777 149.75 23.6735C151.154 23.6735 152.491 23.95 153.765 24.5008C155.041 25.0559 156.049 25.7832 156.8 26.6863L157.058 26.4669L156.82 26.2267L155.044 28.0214L155.282 28.2604L155.541 28.0429C154.141 26.3501 152.177 25.4967 149.751 25.5017C147.545 25.499 145.605 26.2945 144 27.8612C142.379 29.4329 141.565 31.5026 141.568 33.9865C141.565 36.4705 142.379 38.5401 144 40.1119C145.605 41.6786 147.545 42.474 149.75 42.4712C152.081 42.4754 154.068 41.6773 155.632 40.0948C156.676 39.0379 157.269 37.5738 157.424 35.7534L157.455 35.3844H150.087V33.6147H159.542V33.2749L159.21 33.3346C159.302 33.8499 159.346 34.3396 159.346 34.8137H160.019C160.019 34.2972 159.972 33.7662 159.873 33.2141L159.823 32.935H149.414V36.0641H157.088V35.7242L156.753 35.6951C156.604 37.4052 156.065 38.693 155.156 39.6145C153.709 41.0693 151.933 41.7874 149.751 41.7915C147.703 41.7888 145.965 41.0771 144.467 39.6235C142.983 38.175 142.245 36.3257 142.241 33.9865C142.245 31.6472 142.983 29.798 144.467 28.3495C145.965 26.8958 147.703 26.1842 149.751 26.1814C152.028 26.1869 153.747 26.9462 155.025 28.4796L155.261 28.7637L157.296 26.7073L157.515 26.4871L157.316 26.2491C156.488 25.2537 155.386 24.4635 154.031 23.877C152.674 23.2886 151.241 22.9938 149.751 22.9938C146.757 22.9912 144.173 24.0533 142.078 26.155C139.975 28.2526 138.914 30.8893 138.917 33.9865C138.914 37.0823 139.975 39.7205 142.079 41.8193C144.173 43.9197 146.757 44.9805 149.751 44.9777C152.868 44.9805 155.455 43.9354 157.417 41.8551L157.174 41.6201L157.412 41.8606C159.156 40.1014 160.022 37.725 160.019 34.8137H159.682H159.683ZM175.204 26.2957H166.003V32.7613H174.301V35.2116H166.003V41.6773H175.204V44.1824H163.409V23.7906H175.204V26.2957" fill="white"/>
<path d="M175.204 26.2957V25.9558H165.666V33.1012H173.964V34.8708L165.666 34.8718V42.0171H174.868V43.8425H163.746V24.1304H174.868V26.2957H175.204V25.9558V26.2957H175.541V23.4507H163.072V44.5222H175.541V41.3374H166.34V35.5515H174.638V32.4215H166.34V26.6355H175.541V26.2957H175.204V26.2957ZM186.153 44.1825H183.555V26.2955H177.912V23.7904H191.796V26.2955H186.153V44.1822" fill="white"/>
<path d="M186.153 44.1825V43.8425H183.892V25.9558H178.248V24.1305H191.459V25.9558H185.816V44.1824H186.153V43.8425V44.1824H186.49V26.6355H192.133V23.4507H177.575V26.6354H183.218V44.5221H186.49V44.1822H186.153V44.1825ZM201.842 44.1825V23.7904H204.438V44.1822H201.842" fill="white"/>
<path d="M201.842 44.1825H202.179V24.1304H204.101V43.8425H201.842V44.1824H202.179H201.842V44.5222H204.774V23.4507H201.505V44.5222H201.842V44.1824V44.1825ZM215.954 44.1825H213.356V26.2955H207.713V23.7904H221.597V26.2955H215.954V44.1822" fill="white"/>
<path d="M215.954 44.1826V43.8426H213.693V25.9559H208.05V24.1306H221.261V25.9559H215.617V44.1825H215.954V43.8426V44.1825H216.291V26.6356H221.934V23.4507H207.376V26.6354H213.019V44.5222H216.291V44.1823H215.954V44.1826ZM234.983 39.8401C236.479 41.368 238.309 42.1313 240.473 42.1313C242.637 42.1313 244.467 41.368 245.961 39.8401C247.458 38.3121 248.207 36.3588 248.207 33.9865C248.207 31.6144 247.458 29.6611 245.961 28.1331C244.467 26.605 242.637 25.8416 240.473 25.8416C238.309 25.8416 236.479 26.605 234.983 28.1331C233.49 29.6611 232.741 31.6143 232.741 33.9865C232.741 36.3588 233.49 38.3121 234.983 39.8401ZM247.881 41.5472C245.895 43.6088 243.424 44.6379 240.473 44.6379C237.518 44.6379 235.049 43.6088 233.067 41.5472C231.079 39.4879 230.09 36.9672 230.09 33.9865C230.09 31.0059 231.079 28.4847 233.067 26.4259C235.049 24.3638 237.518 23.3337 240.473 23.3337C243.409 23.3337 245.872 24.3693 247.868 26.4392C249.861 28.5088 250.858 31.0245 250.858 33.9865C250.858 36.9672 249.863 39.4879 247.881 41.5472Z" fill="white"/>
<path d="M234.983 39.8401L234.744 40.079C236.295 41.6681 238.23 42.4754 240.473 42.4712C242.714 42.4754 244.652 41.6681 246.2 40.079C247.761 38.4883 248.547 36.4305 248.544 33.9865C248.546 31.5426 247.761 29.4847 246.2 27.894C244.652 26.3049 242.714 25.4978 240.473 25.5017C238.23 25.4978 236.295 26.3049 234.744 27.894C233.186 29.4847 232.4 31.5426 232.404 33.9865C232.4 36.4304 233.186 38.4883 234.744 40.079L234.983 39.8401L235.223 39.601C233.794 38.1339 233.08 36.2885 233.077 33.9865C233.08 31.6846 233.794 29.8392 235.223 28.3719C236.664 26.9051 238.386 26.1856 240.473 26.1816C242.557 26.1856 244.283 26.9051 245.721 28.3719C247.152 29.8392 247.867 31.6846 247.869 33.9865C247.867 36.2883 247.152 38.1339 245.721 39.601C244.283 41.068 242.558 41.7874 240.473 41.7914C238.386 41.7874 236.664 41.068 235.223 39.601L234.983 39.8401ZM247.881 41.5471L247.64 41.311C245.709 43.3077 243.348 44.2941 240.473 44.298C237.596 44.2939 235.235 43.3077 233.307 41.311L233.298 41.3003L233.307 41.311C231.38 39.3075 230.429 36.8914 230.427 33.9865C230.429 31.0816 231.38 28.6655 233.307 26.6621C235.235 24.6653 237.596 23.6777 240.473 23.6737C243.33 23.6777 245.686 24.6694 247.627 26.6766C249.561 28.6893 250.517 31.1016 250.521 33.9865C250.517 36.8914 249.564 39.3075 247.64 41.311L247.881 41.5471L248.123 41.7833C250.165 39.6673 251.197 37.0426 251.195 33.9865C251.197 30.9478 250.161 28.3284 248.11 26.203C246.058 24.0692 243.488 22.9902 240.473 22.9938C237.442 22.9902 234.864 24.0641 232.825 26.1897V26.1882C230.779 28.3056 229.75 30.9304 229.753 33.9865C229.75 37.0426 230.779 39.6673 232.825 41.7846L232.834 41.7943L232.825 41.7833C234.864 43.9088 237.442 44.9805 240.473 44.9777C243.502 44.9805 246.08 43.9088 248.123 41.7833L247.881 41.5471V41.5471ZM254.502 44.1826V23.7904H257.662L267.481 39.6539H267.593L267.481 35.7241V23.7904H270.079V44.1823H267.369L257.096 27.55H256.984L257.096 31.4812V44.1823H254.502" fill="white"/>
<path d="M254.502 44.1826H254.839V24.1304H257.475L267.294 39.9939H267.939L267.818 35.7192V24.1305H269.742V43.8426H267.556L257.283 27.2103H256.638L256.759 31.4868V43.8426H254.502V44.1824H254.839H254.502V44.5223H257.432V31.476L257.321 27.541L256.984 27.5502V27.89H257.096V27.5502L256.81 27.7309L267.183 44.5223H270.416V23.4507H267.145V35.7282L267.256 39.6632L267.593 39.654V39.3142H267.481V39.654L267.767 39.4736L257.848 23.4507H254.165V44.5223H254.502V44.1824L254.502 44.1826ZM360.109 101.959H366.393V59.4723H360.109L360.109 101.959ZM416.707 74.7772L409.504 93.1975H409.289L401.813 74.7771H395.044L406.254 100.523L399.863 114.844H406.419L423.695 74.7771L416.707 74.7772ZM381.072 97.1338C379.011 97.1338 376.142 96.0955 376.142 93.5254C376.142 90.246 379.718 88.989 382.803 88.989C385.568 88.989 386.864 89.5901 388.545 90.411C388.056 94.3458 384.699 97.1338 381.072 97.1338V97.1338ZM381.83 73.8476C377.28 73.8476 372.569 75.8707 370.619 80.353L376.196 82.7028C377.388 80.353 379.607 79.5868 381.938 79.5868C385.187 79.5868 388.491 81.5557 388.545 85.054V85.4908C387.406 84.8348 384.972 83.8511 381.991 83.8511C375.98 83.8511 369.858 87.1846 369.858 93.4164C369.858 99.1013 374.788 102.764 380.311 102.764C384.537 102.764 386.864 100.851 388.329 98.6101H388.545V101.889H394.61V85.5994C394.61 78.0576 389.033 73.8476 381.83 73.8476V73.8476ZM342.996 79.9491H334.058V65.3857H342.996C347.693 65.3857 350.36 69.3112 350.36 72.6672C350.36 75.9598 347.693 79.9491 342.996 79.9491ZM342.834 59.4723H327.778V101.959H334.058V85.8624H342.834C349.798 85.8624 356.644 80.7736 356.644 72.6672C356.644 64.5611 349.798 59.4723 342.834 59.4723V59.4723ZM260.73 97.1416C256.389 97.1416 252.755 93.4735 252.755 88.4353C252.755 83.3442 256.389 79.6201 260.73 79.6201C265.016 79.6201 268.38 83.344 268.38 88.4353C268.38 93.4735 265.016 97.1416 260.73 97.1416H260.73ZM267.946 77.1562H267.728C266.318 75.4592 263.604 73.9262 260.187 73.9262C253.026 73.9262 246.462 80.2772 246.462 88.4353C246.462 96.5391 253.026 102.836 260.187 102.836C263.604 102.836 266.318 101.302 267.728 99.5512H267.946V101.632C267.946 107.163 265.016 110.119 260.296 110.119C256.444 110.119 254.057 107.326 253.08 104.972L247.601 107.271C249.174 111.104 253.352 115.813 260.296 115.813C267.674 115.813 273.914 111.432 273.914 100.755V74.8023H267.946V77.1562ZM278.253 101.959H284.547V59.4708H278.253V101.959ZM293.824 87.9428C293.661 82.3574 298.11 79.5111 301.31 79.5111C303.808 79.5111 305.922 80.7697 306.626 82.5782L293.824 87.9428ZM313.355 83.1248C312.162 79.8934 308.526 73.9262 301.093 73.9262C293.715 73.9262 287.585 79.7846 287.585 88.3809C287.585 96.4847 293.661 102.836 301.798 102.836C308.364 102.836 312.162 98.7838 313.735 96.4298L308.852 93.144C307.226 95.5537 305 97.1416 301.798 97.1416C298.598 97.1416 296.32 95.6628 294.854 92.7617L314.005 84.7671L313.355 83.1248ZM160.778 78.3614V84.4936H175.318C174.884 87.9428 173.744 90.4612 172.008 92.2135C169.893 94.3496 166.583 96.7036 160.778 96.7036C151.826 96.7036 144.828 89.4215 144.828 80.3872C144.828 71.353 151.826 64.0701 160.778 64.0701C165.607 64.0701 169.132 65.9868 171.737 68.4508L176.023 64.1257C172.388 60.6207 167.559 57.9379 160.778 57.9379C148.517 57.9379 138.209 68.0128 138.209 80.3872C138.209 92.7617 148.517 102.836 160.778 102.836C167.397 102.836 172.388 100.647 176.294 96.5391C180.309 92.4871 181.557 86.7931 181.557 82.1943C181.557 80.7697 181.449 79.4567 181.231 78.3614H160.778ZM198.087 97.1416C193.746 97.1416 190.002 93.5277 190.002 88.3809C190.002 83.1792 193.746 79.6201 198.087 79.6201C202.426 79.6201 206.17 83.1792 206.17 88.3809C206.17 93.5279 202.426 97.1416 198.087 97.1416ZM198.087 73.9262C190.165 73.9262 183.709 80.0035 183.709 88.3809C183.709 96.7036 190.165 102.836 198.087 102.836C206.007 102.836 212.463 96.7036 212.463 88.3809C212.463 80.0035 206.007 73.9262 198.087 73.9262ZM229.449 97.1416C225.11 97.1416 221.366 93.5277 221.366 88.3809C221.366 83.1792 225.11 79.6201 229.449 79.6201C233.789 79.6201 237.532 83.1792 237.532 88.3809C237.532 93.5279 233.789 97.1416 229.449 97.1416H229.449ZM229.449 73.9262C221.528 73.9262 215.073 80.0035 215.073 88.3809C215.073 96.7036 221.528 102.836 229.449 102.836C237.37 102.836 243.826 96.7036 243.826 88.3809C243.826 80.0035 237.37 73.9262 229.449 73.9262H229.449Z" fill="white"/>
<path d="M35.3879 25.8682C34.2578 26.8972 33.5833 28.6136 33.5833 30.8919V30.3768V105.559V105.063C33.5833 107.168 34.1619 108.792 35.1417 109.839L35.3919 110.081V110.082C36.185 110.804 37.202 111.187 38.3676 111.186C39.5065 111.186 40.7878 110.82 42.1402 110.046L91.0204 82.0163L107.81 72.3872C109.943 71.1647 111.14 69.5875 111.34 67.9809V67.9743C111.14 66.3641 109.943 64.7881 107.811 63.5654L91.0191 53.9375L42.1403 25.9079C40.7851 25.1327 39.5028 24.7649 38.3609 24.7649C37.1967 24.7649 36.181 25.1472 35.3882 25.8682H35.3879Z" fill="#00C1FF"/>
<path d="M35.392 110.081L35.1417 109.839C34.1619 108.793 33.5833 107.168 33.5833 105.063V105.559V30.3955V30.8919C33.5833 28.6135 34.2578 26.8972 35.3879 25.8681L77.1109 67.9757L35.392 110.081Z" fill="url(#paint0_linear)"/>
<path d="M91.0204 82.0162L77.1108 67.9757L91.0192 53.9375L107.811 63.5653C109.943 64.7881 111.14 66.364 111.34 67.9744V67.9808C111.14 69.5873 109.943 71.1647 107.811 72.3871L91.0205 82.0161" fill="url(#paint1_linear)"/>
<path d="M38.3675 111.186C37.2021 111.187 36.1851 110.804 35.3922 110.081V110.08L77.111 67.9756L91.0205 82.0161L42.1401 110.046C40.7878 110.82 39.5064 111.186 38.3675 111.186Z" fill="url(#paint2_linear)"/>
<path d="M77.1109 67.9759L35.3878 25.8683C36.1809 25.1474 37.1965 24.7651 38.3606 24.7651C39.5025 24.7651 40.7849 25.1327 42.14 25.908L91.019 53.9377L77.1107 67.9759" fill="url(#paint3_linear)"/>
<path d="M38.3689 111.684C37.2035 111.684 36.1851 111.3 35.392 110.578L35.3906 110.579C35.3874 110.576 35.3839 110.573 35.3802 110.57L35.1633 110.356C35.1564 110.35 35.1501 110.342 35.142 110.334L35.3922 110.082C36.1853 110.804 37.2021 111.188 38.3678 111.186C39.5066 111.186 40.788 110.82 42.1403 110.046L91.0206 82.0162L91.3337 82.3324L91.0166 82.5142L42.1401 110.542C40.9077 111.247 39.7355 111.615 38.6766 111.676C38.5741 111.681 38.4715 111.684 38.3689 111.684" fill="url(#paint4_linear)"/>
<path d="M35.1418 110.334C34.1619 109.288 33.5833 107.664 33.5833 105.559V105.064C33.5833 107.168 34.1619 108.792 35.1418 109.839L35.3919 110.081L35.1418 110.334" fill="url(#paint5_linear)"/>
<path d="M91.3336 82.3322L91.0204 82.0161L107.81 72.3871C109.943 71.1647 111.14 69.5873 111.34 67.9808C111.34 68.5704 111.21 69.1598 110.951 69.7335C110.428 70.8898 109.381 71.9824 107.811 72.8837L91.3336 82.3324" fill="url(#paint6_linear)"/>
<path d="M111.34 67.9745C111.14 66.3641 109.943 64.7883 107.811 63.5654L91.019 53.9377L91.3322 53.6215H91.3336L107.811 63.0702C110.161 64.4191 111.339 66.1966 111.34 67.9745" fill="url(#paint7_linear)"/>
<path d="M33.5833 30.8919V30.3726C33.5833 30.1853 33.5883 30.0022 33.5978 29.8244V29.8163C33.5978 29.8138 33.5978 29.8112 33.5987 29.8085V29.7885C33.7001 27.9762 34.2578 26.5625 35.1417 25.6186L35.3879 25.868C34.2578 26.8972 33.5833 28.6136 33.5833 30.8919Z" fill="url(#paint8_linear)"/>
<path d="M91.019 53.9377L42.1401 25.9078C40.7851 25.1326 39.5028 24.7649 38.3608 24.7649C37.1966 24.7649 36.181 25.1472 35.388 25.8682L35.1418 25.6186C35.2187 25.5365 35.2986 25.4572 35.3814 25.3811C35.3839 25.3783 35.388 25.3756 35.3906 25.373C36.1774 24.6575 37.1822 24.2752 38.336 24.2684H38.3608C39.5028 24.2684 40.7851 24.6362 42.1401 25.4116L91.3335 53.6204L91.3322 53.6215L91.019 53.9377" fill="url(#paint9_linear)"/>
<defs>
<linearGradient id="paint0_linear" x1="60.2468" y1="29.6011" x2="24.0177" y2="65.6142" gradientUnits="userSpaceOnUse">
<stop stop-color="#00A0FF"/>
<stop offset="0.00657" stop-color="#00A1FF"/>
<stop offset="0.2601" stop-color="#00BEFF"/>
<stop offset="0.5122" stop-color="#00D2FF"/>
<stop offset="0.7604" stop-color="#00DFFF"/>
<stop offset="1" stop-color="#00E3FF"/>
</linearGradient>
<linearGradient id="paint1_linear" x1="113.938" y1="67.7331" x2="32.454" y2="67.7331" gradientUnits="userSpaceOnUse">
<stop stop-color="#FFE000"/>
<stop offset="0.4087" stop-color="#FFBD00"/>
<stop offset="0.7754" stop-color="#FFA500"/>
<stop offset="1" stop-color="#FF9C00"/>
</linearGradient>
<linearGradient id="paint2_linear" x1="83.6358" y1="81.3248" x2="22.2465" y2="141.903" gradientUnits="userSpaceOnUse">
<stop stop-color="#FF3A44"/>
<stop offset="1" stop-color="#C31162"/>
</linearGradient>
<linearGradient id="paint3_linear" x1="24.6345" y1="19.6257" x2="51.9947" y2="46.6657" gradientUnits="userSpaceOnUse">
<stop stop-color="#32A071"/>
<stop offset="0.0685" stop-color="#2DA771"/>
<stop offset="0.4762" stop-color="#15CF74"/>
<stop offset="0.8009" stop-color="#06E775"/>
<stop offset="1" stop-color="#00F076"/>
</linearGradient>
<linearGradient id="paint4_linear" x1="83.6055" y1="91.0642" x2="34.4391" y2="139.938" gradientUnits="userSpaceOnUse">
<stop stop-color="#CC2E36"/>
<stop offset="1" stop-color="#9C0E4E"/>
</linearGradient>
<linearGradient id="paint5_linear" x1="39.1414" y1="29.6014" x2="7.22432" y2="61.3293" gradientUnits="userSpaceOnUse">
<stop stop-color="#008DE0"/>
<stop offset="0.00657" stop-color="#008DE0"/>
<stop offset="0.2601" stop-color="#00A7E0"/>
<stop offset="0.5122" stop-color="#00B8E0"/>
<stop offset="0.7604" stop-color="#00C4E0"/>
<stop offset="1" stop-color="#00C7E0"/>
</linearGradient>
<linearGradient id="paint6_linear" x1="113.938" y1="67.9777" x2="32.4541" y2="67.9777" gradientUnits="userSpaceOnUse">
<stop stop-color="#E0C500"/>
<stop offset="0.4087" stop-color="#E0A600"/>
<stop offset="0.7754" stop-color="#E09100"/>
<stop offset="1" stop-color="#E08900"/>
</linearGradient>
<linearGradient id="paint7_linear" x1="113.938" y1="67.9778" x2="32.4543" y2="67.9778" gradientUnits="userSpaceOnUse">
<stop stop-color="#FFE840"/>
<stop offset="0.4087" stop-color="#FFCE40"/>
<stop offset="0.7754" stop-color="#FFBC40"/>
<stop offset="1" stop-color="#FFB540"/>
</linearGradient>
<linearGradient id="paint8_linear" x1="39.107" y1="29.6588" x2="8.3752" y2="58.8841" gradientUnits="userSpaceOnUse">
<stop stop-color="#40B8FF"/>
<stop offset="0.00657" stop-color="#40B9FF"/>
<stop offset="0.2601" stop-color="#40CEFF"/>
<stop offset="0.5122" stop-color="#40DDFF"/>
<stop offset="0.7604" stop-color="#40E7FF"/>
<stop offset="1" stop-color="#40EAFF"/>
</linearGradient>
<linearGradient id="paint9_linear" x1="24.5739" y1="28.5305" x2="46.5289" y2="50.355" gradientUnits="userSpaceOnUse">
<stop stop-color="#65B895"/>
<stop offset="0.0685" stop-color="#62BD95"/>
<stop offset="0.4762" stop-color="#50DB97"/>
<stop offset="0.8009" stop-color="#44ED98"/>
<stop offset="1" stop-color="#40F498"/>
</linearGradient>
</defs>
</svg>
