<svg width="161" height="36" viewBox="0 0 161 36" fill="none" xmlns="http://www.w3.org/2000/svg">
<path d="M84.626 14.1651C84.626 13.4974 84.3889 12.9771 83.9145 12.6042C83.4488 12.2313 82.6252 11.8454 81.4437 11.4465C80.2621 11.0476 79.2962 10.6617 78.5459 10.2889C76.1052 9.08351 74.8849 7.42723 74.8849 5.32003C74.8849 4.27077 75.1867 3.34724 75.7904 2.54945C76.4028 1.74299 77.2652 1.11864 78.3777 0.676386C79.4903 0.225462 80.7408 0 82.1293 0C83.4833 0 84.695 0.242805 85.7644 0.728415C86.8425 1.21403 87.679 1.90775 88.2741 2.8096C88.8692 3.70278 89.1667 4.72603 89.1667 5.87935H84.639C84.639 5.10758 84.4018 4.50924 83.9275 4.08433C83.4618 3.65942 82.8279 3.44696 82.0258 3.44696C81.2151 3.44696 80.5726 3.62907 80.0983 3.99328C79.6326 4.34881 79.3997 4.80407 79.3997 5.35905C79.3997 5.84467 79.6584 6.28692 80.1759 6.68581C80.6933 7.07603 81.6032 7.4836 82.9055 7.90851C84.2078 8.32475 85.2772 8.77567 86.1137 9.26128C88.1491 10.4406 89.1667 12.0665 89.1667 14.1391C89.1667 15.7953 88.5458 17.0961 87.3039 18.0413C86.062 18.9865 84.3587 19.4591 82.194 19.4591C80.6675 19.4591 79.2833 19.1859 78.0414 18.6396C76.8081 18.0846 75.8767 17.3302 75.2471 16.3763C74.6261 15.4138 74.3157 14.3082 74.3157 13.0594H78.8693C78.8693 14.074 79.128 14.8241 79.6455 15.3097C80.1716 15.7867 81.0211 16.0251 82.194 16.0251C82.9443 16.0251 83.5351 15.8647 83.9663 15.5439C84.4061 15.2143 84.626 14.7547 84.626 14.1651Z" fill="#19212A"/>
<path d="M107.341 3.78516H101.688V19.1989H97.1475V3.78516H91.5977V0.260148H107.341V3.78516Z" fill="#19212A"/>
<path d="M119.475 15.6609H113.252L112.166 19.1989H107.315L114.223 0.260148H118.492L125.451 19.1989H120.574L119.475 15.6609ZM114.339 12.1359H118.388L116.357 5.56717L114.339 12.1359Z" fill="#19212A"/>
<path d="M134.894 12.5131H132.436V19.1989H127.895V0.260148H135.308C137.542 0.260148 139.288 0.758766 140.547 1.756C141.806 2.75324 142.436 4.16237 142.436 5.98341C142.436 7.3015 142.169 8.39412 141.634 9.26128C141.108 10.1284 140.28 10.8308 139.15 11.3685L143.083 19.0038V19.1989H138.219L134.894 12.5131ZM132.436 8.98812H135.308C136.17 8.98812 136.817 8.76266 137.248 8.31174C137.688 7.85214 137.908 7.21478 137.908 6.39965C137.908 5.58452 137.688 4.94715 137.248 4.48756C136.809 4.01929 136.162 3.78516 135.308 3.78516H132.436V8.98812Z" fill="#19212A"/>
<path d="M160.378 3.78516H154.725V19.1989H150.184V3.78516H144.634V0.260148H160.378V3.78516Z" fill="#19212A"/>
<path d="M12.1603 15.6609H5.93784L4.85118 19.1989H0L6.90807 0.260148H11.1771L18.1369 19.1989H13.2599L12.1603 15.6609ZM7.0245 12.1359H11.0736L9.04259 5.56717L7.0245 12.1359Z" fill="#20B27E"/>
<path d="M26.8809 14.048L30.6325 0.260148H35.7036L29.3647 19.1989H24.3971L18.11 0.260148H23.1423L26.8809 14.048Z" fill="#20B27E"/>
<path d="M52.934 3.78516H47.2807V19.1989H42.74V3.78516H37.1903V0.260148H52.934V3.78516Z" fill="#20B27E"/>
<path d="M71.5097 10.1198C71.5097 11.9668 71.169 13.6014 70.4877 15.0236C69.8064 16.4457 68.8362 17.5427 67.577 18.3144C66.3265 19.0775 64.8991 19.4591 63.295 19.4591C61.6909 19.4591 60.2679 19.0905 59.026 18.3535C57.7841 17.6077 56.8139 16.5454 56.1153 15.1666C55.4253 13.7879 55.0631 12.2053 55.0286 10.4189V9.35233C55.0286 7.49661 55.365 5.86201 56.0377 4.44854C56.719 3.02639 57.6892 1.92943 58.9484 1.15766C60.2162 0.385887 61.6564 0 63.2692 0C64.8647 0 66.2877 0.381551 67.5382 1.14465C68.7887 1.90775 69.7589 2.99604 70.4489 4.40951C71.1475 5.81431 71.5011 7.42723 71.5097 9.24827V10.1198ZM66.8914 9.32632C66.8914 7.44458 66.5766 6.0181 65.947 5.04688C65.3261 4.06699 64.4334 3.57704 63.2692 3.57704C60.9923 3.57704 59.7893 5.29402 59.6599 8.72798L59.6469 10.1198C59.6469 11.9755 59.9531 13.402 60.5654 14.3992C61.1778 15.3964 62.0876 15.8951 63.295 15.8951C64.4421 15.8951 65.3261 15.4051 65.947 14.4252C66.568 13.4453 66.8827 12.0362 66.8914 10.1978V9.32632Z" fill="#20B27E"/>
<path d="M76.9719 31.5995C76.9719 31.1274 77.0655 30.7028 77.2525 30.3258C77.4396 29.9457 77.7024 29.6547 78.0408 29.4528C78.3793 29.2479 78.7683 29.1455 79.2077 29.1455C79.858 29.1455 80.385 29.3548 80.7889 29.7735C81.1956 30.1921 81.4154 30.7474 81.448 31.4392L81.4525 31.6931C81.4525 32.1682 81.3604 32.5928 81.1763 32.9669C80.9952 33.341 80.7339 33.6305 80.3925 33.8354C80.054 34.0402 79.662 34.1427 79.2167 34.1427C78.5367 34.1427 77.9919 33.917 77.5821 33.4657C77.1753 33.0114 76.9719 32.4072 76.9719 31.653V31.5995ZM78.0542 31.6931C78.0542 32.1889 78.1566 32.5779 78.3615 32.86C78.5664 33.1391 78.8514 33.2786 79.2167 33.2786C79.5819 33.2786 79.8654 33.1361 80.0673 32.8511C80.2722 32.566 80.3747 32.1489 80.3747 31.5995C80.3747 31.1126 80.2692 30.7266 80.0584 30.4416C79.8506 30.1565 79.567 30.014 79.2077 30.014C78.8544 30.014 78.5738 30.155 78.366 30.4371C78.1581 30.7162 78.0542 31.1349 78.0542 31.6931Z" fill="#20B27E"/>
<path d="M83.7369 29.2346L83.7681 29.7913C84.1244 29.3608 84.5921 29.1455 85.1711 29.1455C86.1747 29.1455 86.6854 29.72 86.7032 30.8691V34.0536H85.6209V30.9315C85.6209 30.6256 85.5541 30.4 85.4205 30.2545C85.2898 30.106 85.0746 30.0318 84.7747 30.0318C84.3382 30.0318 84.0131 30.2293 83.7993 30.6242V34.0536H82.717V29.2346H83.7369Z" fill="#20B27E"/>
<path d="M89.3261 34.0536H88.2439V27.2125H89.3261V34.0536Z" fill="#20B27E"/>
<path d="M93.7529 34.0536C93.7054 33.9616 93.6638 33.8116 93.6282 33.6038C93.2838 33.963 92.8621 34.1427 92.3633 34.1427C91.8793 34.1427 91.4844 34.0046 91.1786 33.7285C90.8728 33.4523 90.7198 33.1109 90.7198 32.7041C90.7198 32.1904 90.9099 31.797 91.2899 31.5238C91.673 31.2477 92.2193 31.1096 92.9289 31.1096H93.5926V30.7934C93.5926 30.544 93.5228 30.3451 93.3832 30.1966C93.2437 30.0452 93.0314 29.9694 92.7463 29.9694C92.4999 29.9694 92.298 30.0318 92.1406 30.1565C91.9832 30.2782 91.9046 30.4341 91.9046 30.6242H90.8223C90.8223 30.3599 90.9099 30.1135 91.085 29.8848C91.2602 29.6532 91.4978 29.4721 91.7977 29.3415C92.1005 29.2108 92.4375 29.1455 92.8087 29.1455C93.3728 29.1455 93.8227 29.288 94.1582 29.5731C94.4937 29.8551 94.6659 30.253 94.6748 30.7667V32.9402C94.6748 33.3737 94.7357 33.7196 94.8574 33.9779V34.0536H93.7529ZM92.5637 33.2742C92.7775 33.2742 92.9779 33.2222 93.165 33.1183C93.355 33.0144 93.4975 32.8748 93.5926 32.6996V31.7911H93.0091C92.6083 31.7911 92.3069 31.8608 92.105 32.0004C91.9031 32.1399 91.8021 32.3374 91.8021 32.5928C91.8021 32.8006 91.8704 32.9669 92.007 33.0916C92.1465 33.2133 92.3321 33.2742 92.5637 33.2742Z" fill="#20B27E"/>
<path d="M97.7877 32.5037L98.7676 29.2346H99.9211L98.006 34.784C97.712 35.5946 97.2132 35.9999 96.5095 35.9999C96.3521 35.9999 96.1784 35.9732 95.9884 35.9198V35.0824L96.1932 35.0958C96.4664 35.0958 96.6713 35.0453 96.8079 34.9444C96.9474 34.8464 97.0573 34.6801 97.1375 34.4455L97.2933 34.0313L95.6009 29.2346H96.7678L97.7877 32.5037Z" fill="#20B27E"/>
<path d="M101.916 29.2346L101.947 29.7913C102.304 29.3608 102.771 29.1455 103.35 29.1455C104.354 29.1455 104.864 29.72 104.882 30.8691V34.0536H103.8V30.9315C103.8 30.6256 103.733 30.4 103.6 30.2545C103.469 30.106 103.254 30.0318 102.954 30.0318C102.517 30.0318 102.192 30.2293 101.978 30.6242V34.0536H100.896V29.2346H101.916Z" fill="#20B27E"/>
<path d="M111.87 34.0536C111.822 33.9616 111.781 33.8116 111.745 33.6038C111.401 33.963 110.979 34.1427 110.48 34.1427C109.996 34.1427 109.601 34.0046 109.295 33.7285C108.99 33.4523 108.837 33.1109 108.837 32.7041C108.837 32.1904 109.027 31.797 109.407 31.5238C109.79 31.2477 110.336 31.1096 111.046 31.1096H111.709V30.7934C111.709 30.544 111.64 30.3451 111.5 30.1966C111.36 30.0452 111.148 29.9694 110.863 29.9694C110.617 29.9694 110.415 30.0318 110.257 30.1565C110.1 30.2782 110.021 30.4341 110.021 30.6242H108.939C108.939 30.3599 109.027 30.1135 109.202 29.8848C109.377 29.6532 109.615 29.4721 109.914 29.3415C110.217 29.2108 110.554 29.1455 110.925 29.1455C111.49 29.1455 111.939 29.288 112.275 29.5731C112.61 29.8551 112.783 30.253 112.792 30.7667V32.9402C112.792 33.3737 112.852 33.7196 112.974 33.9779V34.0536H111.87ZM110.68 33.2742C110.894 33.2742 111.095 33.2222 111.282 33.1183C111.472 33.0144 111.614 32.8748 111.709 32.6996V31.7911H111.126C110.725 31.7911 110.424 31.8608 110.222 32.0004C110.02 32.1399 109.919 32.3374 109.919 32.5928C109.919 32.8006 109.987 32.9669 110.124 33.0916C110.263 33.2133 110.449 33.2742 110.68 33.2742Z" fill="#20B27E"/>
<path d="M115.918 32.6818L116.938 29.2346H118.056L116.385 34.0536H115.446L113.762 29.2346H114.885L115.918 32.6818Z" fill="#20B27E"/>
<path d="M120.456 28.0632V29.2346H121.307V30.0363H120.456V32.7264C120.456 32.9105 120.492 33.0441 120.563 33.1272C120.637 33.2074 120.768 33.2475 120.955 33.2475C121.079 33.2475 121.206 33.2326 121.333 33.2029V34.0402C121.087 34.1085 120.849 34.1427 120.621 34.1427C119.789 34.1427 119.374 33.6839 119.374 32.7665V30.0363H118.581V29.2346H119.374V28.0632H120.456Z" fill="#20B27E"/>
<path d="M122.166 31.5995C122.166 31.1274 122.259 30.7028 122.446 30.3258C122.634 29.9457 122.896 29.6547 123.235 29.4528C123.573 29.2479 123.962 29.1455 124.402 29.1455C125.052 29.1455 125.579 29.3548 125.983 29.7735C126.39 30.1921 126.609 30.7474 126.642 31.4392L126.646 31.6931C126.646 32.1682 126.554 32.5928 126.37 32.9669C126.189 33.341 125.928 33.6305 125.586 33.8354C125.248 34.0402 124.856 34.1427 124.411 34.1427C123.731 34.1427 123.186 33.917 122.776 33.4657C122.369 33.0114 122.166 32.4072 122.166 31.653V31.5995ZM123.248 31.6931C123.248 32.1889 123.351 32.5779 123.555 32.86C123.76 33.1391 124.045 33.2786 124.411 33.2786C124.776 33.2786 125.059 33.1361 125.261 32.8511C125.466 32.566 125.569 32.1489 125.569 31.5995C125.569 31.1126 125.463 30.7266 125.252 30.4416C125.045 30.1565 124.761 30.014 124.402 30.014C124.048 30.014 123.768 30.155 123.56 30.4371C123.352 30.7162 123.248 31.1349 123.248 31.6931Z" fill="#20B27E"/>
<path d="M128.944 29.2346L128.975 29.7378C129.314 29.3429 129.777 29.1455 130.365 29.1455C131.009 29.1455 131.45 29.3919 131.688 29.8848C132.038 29.3919 132.531 29.1455 133.166 29.1455C133.698 29.1455 134.093 29.2925 134.351 29.5864C134.612 29.8804 134.746 30.3139 134.752 30.8869V34.0536H133.67V30.9181C133.67 30.6123 133.603 30.3881 133.469 30.2456C133.336 30.1031 133.115 30.0318 132.806 30.0318C132.559 30.0318 132.357 30.0986 132.2 30.2322C132.046 30.3629 131.937 30.5351 131.875 30.7489L131.879 34.0536H130.797V30.8825C130.782 30.3154 130.493 30.0318 129.929 30.0318C129.495 30.0318 129.188 30.2085 129.007 30.5618V34.0536H127.924V29.2346H128.944Z" fill="#20B27E"/>
<path d="M139.108 34.0536C139.06 33.9616 139.018 33.8116 138.983 33.6038C138.638 33.963 138.217 34.1427 137.718 34.1427C137.234 34.1427 136.839 34.0046 136.533 33.7285C136.227 33.4523 136.074 33.1109 136.074 32.7041C136.074 32.1904 136.264 31.797 136.645 31.5238C137.028 31.2477 137.574 31.1096 138.284 31.1096H138.947V30.7934C138.947 30.544 138.877 30.3451 138.738 30.1966C138.598 30.0452 138.386 29.9694 138.101 29.9694C137.855 29.9694 137.653 30.0318 137.495 30.1565C137.338 30.2782 137.259 30.4341 137.259 30.6242H136.177C136.177 30.3599 136.264 30.1135 136.44 29.8848C136.615 29.6532 136.852 29.4721 137.152 29.3415C137.455 29.2108 137.792 29.1455 138.163 29.1455C138.727 29.1455 139.177 29.288 139.513 29.5731C139.848 29.8551 140.021 30.253 140.029 30.7667V32.9402C140.029 33.3737 140.09 33.7196 140.212 33.9779V34.0536H139.108ZM137.918 33.2742C138.132 33.2742 138.333 33.2222 138.52 33.1183C138.71 33.0144 138.852 32.8748 138.947 32.6996V31.7911H138.364C137.963 31.7911 137.662 31.8608 137.46 32.0004C137.258 32.1399 137.157 32.3374 137.157 32.5928C137.157 32.8006 137.225 32.9669 137.362 33.0916C137.501 33.2133 137.687 33.2742 137.918 33.2742Z" fill="#20B27E"/>
<path d="M143.093 31.987L142.612 32.4814V34.0536H141.53V27.2125H142.612V31.1586L142.951 30.7355L144.283 29.2346H145.583L143.793 31.2432L145.775 34.0536H144.523L143.093 31.987Z" fill="#20B27E"/>
<path d="M148.014 28.0632V29.2346H148.865V30.0363H148.014V32.7264C148.014 32.9105 148.05 33.0441 148.121 33.1272C148.196 33.2074 148.326 33.2475 148.513 33.2475C148.638 33.2475 148.764 33.2326 148.892 33.2029V34.0402C148.645 34.1085 148.408 34.1427 148.179 34.1427C147.348 34.1427 146.932 33.6839 146.932 32.7665V30.0363H146.139V29.2346H146.932V28.0632H148.014Z" fill="#20B27E"/>
<path d="M152.94 34.0536C152.893 33.9616 152.851 33.8116 152.815 33.6038C152.471 33.963 152.049 34.1427 151.55 34.1427C151.066 34.1427 150.672 34.0046 150.366 33.7285C150.06 33.4523 149.907 33.1109 149.907 32.7041C149.907 32.1904 150.097 31.797 150.477 31.5238C150.86 31.2477 151.406 31.1096 152.116 31.1096H152.78V30.7934C152.78 30.544 152.71 30.3451 152.57 30.1966C152.431 30.0452 152.219 29.9694 151.933 29.9694C151.687 29.9694 151.485 30.0318 151.328 30.1565C151.17 30.2782 151.092 30.4341 151.092 30.6242H150.009C150.009 30.3599 150.097 30.1135 150.272 29.8848C150.447 29.6532 150.685 29.4721 150.985 29.3415C151.288 29.2108 151.625 29.1455 151.996 29.1455C152.56 29.1455 153.01 29.288 153.345 29.5731C153.681 29.8551 153.853 30.253 153.862 30.7667V32.9402C153.862 33.3737 153.923 33.7196 154.045 33.9779V34.0536H152.94ZM151.751 33.2742C151.965 33.2742 152.165 33.2222 152.352 33.1183C152.542 33.0144 152.685 32.8748 152.78 32.6996V31.7911H152.196C151.795 31.7911 151.494 31.8608 151.292 32.0004C151.09 32.1399 150.989 32.3374 150.989 32.5928C150.989 32.8006 151.058 32.9669 151.194 33.0916C151.334 33.2133 151.519 33.2742 151.751 33.2742Z" fill="#20B27E"/>
<path d="M159.589 31.6931C159.589 32.4413 159.422 33.0367 159.086 33.4791C158.753 33.9215 158.295 34.1427 157.71 34.1427C157.146 34.1427 156.706 33.9393 156.391 33.5325L156.338 34.0536H155.358V27.2125H156.44V29.6978C156.752 29.3296 157.172 29.1455 157.701 29.1455C158.289 29.1455 158.75 29.3637 159.086 29.8002C159.422 30.2367 159.589 30.8469 159.589 31.6307V31.6931ZM158.507 31.5995C158.507 31.077 158.415 30.685 158.231 30.4237C158.047 30.1624 157.78 30.0318 157.429 30.0318C156.96 30.0318 156.63 30.2367 156.44 30.6464V32.6328C156.633 33.0515 156.966 33.2608 157.438 33.2608C157.777 33.2608 158.038 33.1346 158.222 32.8823C158.406 32.6299 158.501 32.2483 158.507 31.7376V31.5995Z" fill="#20B27E"/>
</svg>
