<svg width="34" height="36" viewBox="0 0 34 36" fill="none" xmlns="http://www.w3.org/2000/svg">
<path d="M13.8251 7.36818C14.6561 6.94869 15.0045 5.75477 14.6293 4.78672L13.3158 1.4631C12.9406 0.527643 12.0292 0.107833 11.225 0.527643C8.94664 1.6893 6.98989 3.2059 5.43521 5.04519C3.53207 7.20684 2.24544 9.69149 1.54851 12.4343C0.851586 15.2097 0.476318 18.9847 0.476318 23.7927V33.699C0.476318 34.7639 1.20005 35.6351 2.08461 35.6351H12.6189C13.5035 35.6351 14.2272 34.7639 14.2272 33.699V21.0176C14.2272 19.9525 13.5035 19.0815 12.6189 19.0815H7.57959C7.6332 15.8221 8.27652 13.2087 9.45593 11.24C10.4209 9.65955 11.8684 8.36882 13.8251 7.36818Z" fill="#20B27E"/>
<path d="M32.7492 7.368C33.5802 6.94851 33.9284 5.75459 33.5534 4.78654L32.2399 1.4955C31.8647 0.559725 30.9533 0.140238 30.1492 0.559725C27.8976 1.72138 25.9674 3.23799 24.3861 5.04501C22.4827 7.23925 21.1696 9.7239 20.4724 12.4667C19.7754 15.1769 19.4272 18.9526 19.4272 23.7928V33.6992C19.4272 34.764 20.151 35.6353 21.0355 35.6353H31.5698C32.4544 35.6353 33.1781 34.764 33.1781 33.6992V21.0178C33.1781 19.9526 32.4544 19.0817 31.5698 19.0817H26.5037C26.5573 15.8223 27.2009 13.2089 28.3801 11.2402C29.345 9.65936 30.7925 8.36863 32.7492 7.368Z" fill="#20B27E"/>
</svg>
